<?xml version="1.0" standalone="no"?>
<!DOCTYPE svg PUBLIC "-//W3C//DTD SVG 20010904//EN"
 "http://www.w3.org/TR/2001/REC-SVG-20010904/DTD/svg10.dtd">
<svg version="1.0" xmlns="http://www.w3.org/2000/svg"
 width="160.000000pt" height="160.000000pt" viewBox="0 0 160.000000 160.000000"
 preserveAspectRatio="xMidYMid meet">
<metadata>
Created by potrace 1.14, written by Peter Selinger 2001-2017
</metadata>
<g transform="translate(0.000000,160.000000) scale(0.100000,-0.100000)"
fill="#000000" stroke="none">
<path d="M1024 1575 c-65 -15 -106 -37 -150 -83 -105 -108 -118 -262 -34 -395
16 -26 30 -52 30 -56 0 -5 -12 -16 -26 -26 -24 -16 -27 -16 -45 1 -18 17 -21
17 -37 1 -14 -15 -15 -20 -4 -38 11 -18 11 -23 -5 -35 -21 -16 -43 -18 -43 -4
0 6 -11 10 -24 10 -26 0 -40 -22 -25 -37 17 -17 0 -37 -94 -107 -360 -271
-529 -402 -538 -418 -14 -26 -3 -53 38 -99 42 -46 57 -48 109 -13 42 29 45 27
79 -37 13 -25 12 -30 -10 -63 -25 -36 -32 -66 -17 -66 4 0 20 -21 37 -45 16
-25 35 -47 41 -49 17 -7 94 53 95 72 3 68 30 96 87 89 33 -3 50 0 74 17 56 38
56 47 4 115 l-47 61 -29 -15 c-44 -23 -69 -18 -101 18 -16 17 -29 34 -29 37 0
6 407 313 422 319 5 1 17 -4 27 -13 15 -13 20 -14 35 -3 16 12 17 17 6 37 -11
21 -10 26 10 42 19 16 24 16 37 3 30 -31 70 -3 43 30 -10 12 -7 19 17 39 l28
25 55 -56 c108 -110 243 -138 376 -78 40 19 108 85 130 127 42 80 49 183 18
256 -13 32 -59 107 -74 122 -3 3 -25 32 -49 65 -25 33 -47 62 -51 65 -3 3 -17
21 -30 40 -34 51 -100 109 -140 126 -55 23 -141 32 -196 19z m130 -110 c73
-35 109 -107 104 -207 l-3 -52 50 -12 c87 -19 128 -49 156 -112 24 -56 24
-105 -1 -158 -53 -108 -205 -137 -290 -54 -46 45 -61 85 -60 153 1 34 1 67 1
72 -1 6 -15 12 -33 13 -104 8 -190 93 -190 188 0 140 140 229 266 169z"/>
</g>
</svg>
